<svg
    fill="#f59e0b"
    height="800px"
    width="800px"
    id="Icons"
    xmlns="http://www.w3.org/2000/svg"
    xmlns:xlink="http://www.w3.org/1999/xlink"
    viewBox="0 0 32 32"
    xml:space="preserve"
>
    <!-- Wallet body -->
    <g>
      <path d="M16,6.1V5c0-1.7-1.3-3-3-3H3C2.4,2,2,2.4,2,3s0.4,1,1,1c0.6,0,1,0.4,1,1v1.1c-1.7,0.4-3,2-3,3.9v16c0,2.2,1.8,4,4,4h10 c2.2,0,4-1.8,4-4V10C19,8.1,17.7,6.6,16,6.1z M13,26H7c-0.6,0-1-0.4-1-1s0.4-1,1-1h6c0.6,0,1,0.4,1,1S13.6,26,13,26z M14,16H6V5 c0-0.4-0.1-0.7-0.2-1H13c0.6,0,1,0.4,1,1V16z" />
      
      <!-- Replaced Dollar with Universal Currency ¤ -->
      <path d="M9.5,6A2.5,2.5,0,1,0,12,8.5A2.5,2.5,0,0,0,9.5,6ZM9.5,10A1.5,1.5,0,1,1,11,8.5A1.5,1.5,0,0,1,9.5,10Z" />
      <polygon points="11.5,6.5 13,5 12,4 10.5,5.5" />
      <polygon points="7.5,10.5 6,12 7,13 8.5,11.5" />
      <polygon points="7.5,6.5 6,5 7,4 8.5,5.5" />
      <polygon points="11.5,10.5 13,12 12,13 10.5,11.5" />
    </g>
    <!-- Background bill -->
    <g>
      <path d="M28,9h-7v4h10v-1C31,10.3,29.7,9,28,9z" />
      <path d="M21,25h7c1.7,0,3-1.3,3-3v-7H21V25z M23,19c0-0.6,0.4-1,1-1h3c0.6,0,1,0.4,1,1v2c0,0.6-0.4,1-1,1h-3c-0.6,0-1-0.4-1-1V19z" />
    </g>
</svg>
